<svg width="30" height="17" viewBox="0 0 39 29" fill="none" xmlns="http://www.w3.org/2000/svg">
<path d="M3.478 28.0962C3.24702 27.8941 3.10394 27.6299 3.0727 27.348C3.04146 27.0661 3.12396 26.7836 3.3064 26.5477L3.36295 26.4807L31.5034 2.10433C31.5373 2.07629 31.5662 2.04414 31.5892 2.00891C31.6255 1.97932 31.6575 1.94617 31.6848 1.91014L33.4729 0.361608C33.7454 0.129082 34.1144 -0.000989213 34.4986 5.66543e-06C34.685 -0.000112313 34.8695 0.0314889 35.0415 0.0929817C35.2136 0.154475 35.3697 0.244639 35.5009 0.35826C35.637 0.471711 35.745 0.607599 35.8183 0.757768C35.8917 0.907936 35.929 1.06929 35.928 1.23213C35.9288 1.3947 35.8913 1.55573 35.818 1.7056C35.7446 1.85546 35.6367 1.99108 35.5009 2.10433L32.0377 5.1043C35.0114 7.53157 37.347 10.4761 38.8881 13.7409C39.037 14.0525 39.037 14.402 38.8881 14.7136C34.8106 22.935 27.5625 27.8334 19.4992 27.8334H19.4797C15.7757 27.803 12.1758 26.7773 9.18565 24.9004L5.4943 28.0979C5.36218 28.2125 5.20486 28.3035 5.03147 28.3656C4.85808 28.4277 4.67206 28.4596 4.4842 28.4595C4.29639 28.4616 4.1101 28.4305 3.93696 28.3679C3.76383 28.3054 3.60758 28.2129 3.478 28.0962ZM15.2092 19.6739C16.3548 20.3484 17.6941 20.74 19.0811 20.8061C20.4681 20.8722 21.8496 20.6101 23.0751 20.0486C24.3006 19.4871 25.3231 18.6475 26.0312 17.6215C26.7392 16.5955 27.1056 15.4223 27.0906 14.2297C27.0901 12.9089 26.6334 11.6179 25.7782 10.52L23.7034 12.3246C24.0553 12.9141 24.2378 13.5673 24.2358 14.2297C24.2415 15.3137 23.7459 16.3553 22.8578 17.1259C21.9698 17.8965 20.7618 18.333 19.4992 18.3396C18.7306 18.3435 17.9727 18.1854 17.2918 17.8793L15.2092 19.6739ZM0.11425 14.7203C0.0388449 14.5666 0 14.4015 0 14.2348C0 14.068 0.0388449 13.903 0.11425 13.7493C4.18585 5.53956 11.436 0.644529 19.4836 0.644529H19.4992C22.2109 0.649499 24.8831 1.20295 27.2992 2.26002L20.95 7.76609C20.471 7.69261 19.9857 7.65342 19.4992 7.64891C17.4722 7.65777 15.5323 8.35744 14.1062 9.59405C12.68 10.8307 11.8843 12.503 11.8942 14.2431C11.8983 14.663 11.9426 15.0818 12.0268 15.4954L4.9834 21.5957C2.96224 19.53 1.32028 17.2115 0.11425 14.7203V14.7203Z" fill="#8D98A9"/>
</svg>
