<svg width="154" height="99" viewBox="0 0 154 99" fill="none" xmlns="http://www.w3.org/2000/svg">
<path d="M136.674 70.844C136.842 70.5614 137.101 70.3451 137.409 70.2315C137.717 70.118 138.055 70.1142 138.366 70.2207C138.648 70.3245 138.905 70.4885 139.118 70.7014C139.332 70.9144 139.496 71.1711 139.6 71.4539C140.116 72.5436 139.797 74.0257 138.301 75.2811C137.935 75.1614 137.574 75.0218 137.223 74.8627C137.683 74.0436 137.938 73.8534 137.609 73.1927C137.397 72.7646 137.107 72.8521 136.802 72.3577C136.633 72.1466 136.53 71.8898 136.507 71.6203C136.485 71.3507 136.543 71.0804 136.674 70.844Z" fill="#1B3254"/>
<path d="M147.782 72.368C147.434 72.368 146.982 72.349 146.453 72.313C146.712 71.8558 146.882 71.3531 146.953 70.832C147.085 70.0105 146.957 69.1683 146.587 68.423C145.807 66.9517 144.538 65.7987 142.999 65.163C141.661 64.4821 140.182 64.1267 138.682 64.126C137.782 64.1399 136.885 64.2158 135.997 64.353C134.668 64.5787 133.365 64.9379 132.108 65.425C131.659 65.584 131.234 65.733 130.855 65.848C130.14 66.0565 129.399 66.1619 128.655 66.161C127.697 66.1846 126.75 65.9626 125.903 65.516C125.047 65.0281 124.338 64.3186 123.851 63.462C123.356 62.6032 123.098 61.6283 123.103 60.637C123.101 60.0809 123.176 59.5272 123.328 58.992C123.48 58.4625 123.708 57.9575 124.003 57.492C124.82 56.3214 125.837 55.3041 127.008 54.487C126.368 54.0837 125.781 53.6008 125.263 53.05C124.753 52.5027 124.316 51.8916 123.963 51.232C123.606 50.572 123.334 49.8698 123.152 49.142C122.97 48.3997 122.88 47.6382 122.882 46.874C122.877 45.9769 122.995 45.0833 123.233 44.218C123.468 43.3808 123.823 42.5821 124.288 41.847C124.779 41.0781 125.37 40.3771 126.045 39.762C126.799 39.0774 127.624 38.4741 128.505 37.962C129.957 37.1124 131.528 36.4822 133.165 36.092C134.987 35.6617 136.854 35.4502 138.726 35.462C139.748 35.4451 140.77 35.512 141.782 35.662C142.958 35.9051 144.107 36.2656 145.212 36.738C145.279 36.7808 145.35 36.8192 145.423 36.853C145.495 36.889 145.577 36.93 145.678 36.986C146.51 37.4085 147.287 37.9318 147.991 38.544C148.685 39.1336 149.329 39.7798 149.916 40.476C150.607 41.3015 151.148 42.2413 151.516 43.253C151.875 44.2738 152.055 45.3489 152.049 46.431C152.051 47.2231 151.95 48.0121 151.749 48.778C151.539 49.5546 151.232 50.3016 150.835 51.001C150.429 51.7195 149.938 52.3866 149.374 52.988C148.789 53.6065 148.136 54.157 147.428 54.629C146.062 55.5502 144.556 56.2448 142.969 56.686C141.245 57.1551 139.465 57.3859 137.679 57.372C136.051 57.3837 134.427 57.2259 132.832 56.901C131.425 56.6121 130.063 56.1369 128.782 55.488C127.918 56.076 127.482 56.682 127.482 57.288C127.482 58.005 127.976 58.434 128.95 58.562C130.12 58.7331 131.3 58.8332 132.483 58.862C132.764 58.8653 133.046 58.8496 133.326 58.815L133.492 58.787H141.774C141.774 58.787 141.844 58.787 141.966 58.787C143.704 58.7681 145.433 59.053 147.074 59.629C147.941 59.9639 148.756 60.4201 149.496 60.984C150.002 61.4004 150.452 61.8823 150.832 62.417C150.96 62.588 151.096 62.759 151.232 62.924C152.1 63.8775 152.683 65.0555 152.916 66.324C153.084 67.1445 153.105 67.9882 152.979 68.816C152.888 69.398 152.647 69.9461 152.279 70.406C151.75 71.0415 151.082 71.5462 150.326 71.881C149.521 72.2184 148.654 72.3842 147.782 72.368ZM138.724 39.918C138.337 39.9161 137.952 39.9607 137.576 40.051C136.971 40.2 136.663 40.373 136.609 40.594C136.53 40.917 136.986 41.318 137.616 41.873C138.272 42.4144 138.864 43.0283 139.382 43.703C139.981 44.4859 140.304 45.4452 140.301 46.431C140.282 48.556 138.834 49.862 137.782 50.816C137.161 51.378 136.67 51.822 136.735 52.222C136.777 52.482 137.046 52.712 137.579 52.945C138.009 53.1265 138.473 53.2167 138.94 53.21C140.669 53.0943 142.303 52.3748 143.556 51.177C144.258 50.5931 144.831 49.87 145.24 49.0533C145.648 48.2366 145.883 47.3441 145.93 46.432C145.93 42.764 142.058 39.92 138.73 39.919L138.724 39.918ZM131.375 42.418C131.146 42.418 130.923 42.4857 130.734 42.6124C130.544 42.7391 130.396 42.9192 130.309 43.13C130.221 43.3407 130.198 43.5726 130.243 43.7964C130.287 44.0202 130.397 44.2259 130.558 44.3873C130.719 44.5488 130.925 44.6589 131.148 44.7036C131.372 44.7484 131.604 44.7258 131.815 44.6388C132.026 44.5517 132.206 44.4041 132.333 44.2146C132.46 44.0251 132.528 43.8022 132.529 43.574C132.528 43.2682 132.407 42.975 132.191 42.7587C131.975 42.5424 131.681 42.4206 131.376 42.42L131.375 42.418Z" fill="#1B3254"/>
<path d="M55.5457 0.0800781H69.0097L65.1467 6.05508C65.1467 6.05508 64.6917 10.4551 53.9357 10.4551C43.1797 10.4551 43.2567 6.05508 43.2567 6.05508L55.5457 0.0800781Z" fill="#FFF2E4"/>
<path d="M43.4697 1.505L56.1297 0L43.4697 6.055C43.4697 6.055 43.0417 10.455 32.2857 10.455C21.5297 10.455 21.6067 6.055 21.6067 6.055L43.4697 1.505Z" fill="#FD5E29"/>
<path d="M69.0527 0H82.5177L86.7717 6.055C86.7717 6.055 86.3427 10.455 75.5867 10.455C64.8307 10.455 64.9077 6.055 64.9077 6.055L69.0527 0Z" fill="#FD5E29"/>
<path d="M109.479 1.505L95.8357 0L108.362 6.055C108.362 6.055 108.354 10.469 119.11 10.469C129.866 10.469 130.221 6.06 130.221 6.06L109.479 1.505Z" fill="#FD5E29"/>
<path d="M95.9827 0H82.5177L86.6837 6.055C86.6837 6.055 86.7837 10.467 97.5397 10.467C108.296 10.467 108.572 6.058 108.572 6.058L95.9827 0Z" fill="#FFF2E4"/>
<path d="M43.4697 6.05518C43.4697 6.05518 43.0417 15.7372 32.2857 15.7372C21.5297 15.7372 21.6067 6.05518 21.6067 6.05518H43.4697Z" fill="#E44D1C"/>
<path d="M65.1207 6.05518C65.1207 6.05518 64.6927 15.7372 53.9367 15.7372C43.1807 15.7372 43.2577 6.05518 43.2577 6.05518H65.1207Z" fill="#FFC48F"/>
<path d="M86.7707 6.05518C86.7707 6.05518 86.3427 15.7372 75.5867 15.7372C64.8307 15.7372 64.9077 6.05518 64.9077 6.05518H86.7707Z" fill="#E44D1C"/>
<path d="M108.635 6.05518C108.635 6.05518 108.207 15.7372 97.4507 15.7372C86.6947 15.7372 86.7717 6.05518 86.7717 6.05518H108.635Z" fill="#FFC48F"/>
<path d="M130.222 6.05518C130.222 6.05518 129.794 15.7372 119.038 15.7372C108.282 15.7372 108.359 6.05518 108.359 6.05518H130.222Z" fill="#E44D1C"/>
<path d="M70.1156 55.1809C70.0784 55.7572 70.2396 56.329 70.5726 56.8009C70.7277 56.9899 70.9251 57.1399 71.1489 57.2385C71.3726 57.3372 71.6164 57.3819 71.8606 57.3689C72.5207 57.3233 73.18 57.4676 73.7606 57.7849C74.1955 58.1943 74.4661 58.7482 74.5216 59.3429V65.4929H71.1516C69.0096 65.4929 65.4946 65.6929 63.0276 63.7929C61.9885 63.0811 61.1437 62.1211 60.5698 60.9999C59.996 59.8788 59.7113 58.632 59.7416 57.3729V29.2169H67.3146C68.0908 29.1439 68.8702 29.3189 69.5406 29.7169C69.9851 30.2706 70.1919 30.9779 70.1156 31.6839V55.1809Z" fill="#FD5E29"/>
<path d="M136.187 74.6284L139.754 76.5431L140.302 77.3429L141.493 85.9795L141.415 86.6547L140.945 87.4076L140.357 87.7156L135.104 88.3341L134.349 88.3878L136.457 85.1668L136.453 82.1777L137.385 78.5743L135.557 74.7428C135.654 74.6574 135.746 74.5648 135.83 74.466C135.83 74.466 136.16 74.6048 136.187 74.6284Z" fill="#FD5E29"/>
<path d="M136.244 78.1028C136.583 78.1265 136.876 77.8715 136.9 77.5332C136.923 77.1949 136.668 76.9015 136.33 76.8778C135.992 76.8542 135.698 77.1092 135.675 77.4475C135.651 77.7857 135.906 78.0792 136.244 78.1028Z" fill="#FD5E29"/>
<g filter="url(#filter0_d_19_9241)">
<path d="M135.239 88.6719L130.017 87.3429L129.281 87.1209L128.816 86.2589L128.704 85.5809L130.658 77.6529L131.09 76.5159L131.619 76.0519L135.409 74.5839C135.533 74.5385 135.653 74.484 135.77 74.4209L135.778 74.4279C135.874 74.5152 135.965 74.608 136.051 74.7059L138.743 77.8279L138.972 78.7889L136.952 87.4349L136.632 88.0479L135.911 88.5919L135.238 88.6719H135.239ZM135.004 77.0309C134.863 77.0308 134.726 77.079 134.617 77.1676C134.508 77.2561 134.432 77.3795 134.403 77.5171C134.373 77.6548 134.392 77.7983 134.456 77.9237C134.52 78.0491 134.625 78.1487 134.754 78.2059C134.832 78.2409 134.917 78.259 135.003 78.2589C135.165 78.2589 135.322 78.1942 135.437 78.0791C135.552 77.9639 135.617 77.8077 135.617 77.6449C135.617 77.4821 135.552 77.3259 135.437 77.2107C135.322 77.0956 135.165 77.0309 135.003 77.0309H135.004Z" fill="#FD5E29"/>
</g>
<path d="M8.48736 77.957C12.2466 78.4905 31.7601 86.3866 58.4294 89.4666C70.0681 90.337 81.7714 89.4615 93.151 86.8692C96.5274 86.057 99.8372 84.9891 103.052 83.675C105.414 82.6506 107.715 81.4903 109.943 80.1999C112.174 78.9599 114.876 77.3702 117.726 76.0906C123.033 73.7071 125.411 73.5103 125.744 73.4576C127.277 73.2494 128.837 73.3729 130.319 73.8197C131.8 74.2666 133.168 75.0263 134.331 76.0476C134.485 76.1858 134.649 76.3897 134.876 76.6289C134.979 76.7344 135.103 76.8741 135.276 77.0504C135.449 77.2267 135.419 77.1741 135.474 77.246C135.536 77.3183 135.579 77.4049 135.6 77.4979C135.534 77.5755 135.447 77.6317 135.349 77.6594C135.251 77.6871 135.147 77.685 135.051 77.6534C134.864 77.5835 134.69 77.4812 134.539 77.3512C134.41 77.2444 134.088 76.9901 133.878 76.854C131.781 75.4811 129.236 74.9667 126.77 75.417C124.088 76.0021 121.49 76.927 119.042 78.1693C115.092 80.1263 110.78 83.4722 106.625 85.8089C102.751 88.0493 98.6199 89.8109 94.3215 91.0552C82.6096 94.5087 70.2913 95.4 58.2042 93.6685C29.3169 89.5751 9.92478 79.5344 8.48736 77.957Z" fill="#1B3254"/>
<path d="M45.1559 43.626C45.213 42.2407 44.9982 40.8574 44.5238 39.5547C43.8028 38.0627 43.1238 36.6893 41.7008 36.4443C40.2778 36.1993 35.8089 36.9548 33.0009 38.7568C30.1929 40.5588 27.2438 43.3486 27.7838 46.8496C28.3238 50.3506 32.0767 52.267 33.1837 52.875C34.2907 53.483 35.8518 54.7547 35.9838 55.2617C36.0358 55.6377 35.1957 56.7778 33.3717 57.5068C31.5477 58.2358 28.9718 58.0804 27.7408 58.1074C27.6035 59.7457 27.7915 61.3945 28.2938 62.96C29.1028 64.883 30.1589 65.7926 30.9579 65.9326C34.4861 65.8991 37.9377 64.8989 40.9379 63.042C44.7829 60.458 45.9917 58.3554 46.1757 55.6484C46.3597 52.9414 44.6578 51.0599 43.2308 49.7939C41.8038 48.5279 38.7408 47.0998 37.9308 45.9228C38.3768 45.1168 39.4718 44.6954 41.3038 44.1094C42.5423 43.6911 43.8525 43.5264 45.1559 43.626Z" fill="#FD5E29"/>
<path d="M99.1716 66.1479C97.6545 66.1492 96.1451 65.9327 94.6896 65.5049C93.2328 65.0784 91.85 64.4309 90.5896 63.5849C89.3007 62.7192 88.1666 61.6428 87.2346 60.4009C86.2366 59.0635 85.4783 57.5628 84.9936 55.9659C84.6111 54.7307 84.3708 53.4557 84.2776 52.1659C84.1934 50.97 84.2511 49.7683 84.4496 48.5859C84.8259 46.3513 85.7242 44.237 87.0716 42.4149C87.7594 41.485 88.5546 40.6395 89.4406 39.8959C90.3354 39.1466 91.3143 38.504 92.3576 37.9809C93.423 37.4466 94.5469 37.0379 95.7066 36.7629C96.9102 36.4784 98.1429 36.3351 99.3796 36.3359C99.5246 36.3359 99.6706 36.3359 99.8156 36.3419C101.794 36.3341 103.751 36.7507 105.554 37.5635C107.357 38.3764 108.965 39.5666 110.27 41.0539C111.746 42.8975 112.823 45.028 113.432 47.31C114.041 49.5921 114.169 51.9758 113.808 54.3099H109.175H96.4326H93.1516C93.1754 54.3578 93.1958 54.4072 93.2126 54.4579C93.5345 55.3397 94.0715 56.1271 94.7749 56.7487C95.4784 57.3702 96.3259 57.8061 97.2406 58.0169C97.961 58.2141 98.7048 58.3123 99.4516 58.3089C100.383 58.2937 101.309 58.1784 102.216 57.9649L102.616 57.8769C103.135 57.7402 103.666 57.6545 104.202 57.6209C104.337 57.6189 104.471 57.635 104.602 57.6689C105.449 57.9298 106.166 58.5014 106.61 59.2689C106.72 59.4159 106.833 59.5689 106.957 59.7229C107.436 60.3289 107.989 61.0229 108.525 61.6949L109.154 62.4849C107.781 63.6904 106.191 64.624 104.47 65.2359C102.769 65.8432 100.977 66.1517 99.1716 66.1479ZM99.5336 43.2709C98.4779 43.22 97.4258 43.4291 96.4698 43.8798C95.5138 44.3305 94.6831 45.0091 94.0506 45.8559C93.4835 46.626 93.0802 47.504 92.8656 48.4359H105.858C105.705 47.5136 105.359 46.6341 104.841 45.8559C104.254 45.0039 103.457 44.3182 102.527 43.8654C101.597 43.4126 100.566 43.2082 99.5336 43.2719V43.2709Z" fill="#FD5E29"/>
<path d="M0.445634 62.3591C0.0542718 60.325 -0.0801127 58.2497 0.0456336 56.1821C0.280634 52.4001 0.629634 47.2501 0.508634 46.6951C0.227676 45.7258 0.342762 44.6846 0.828634 43.8001C1.59763 42.4371 2.90863 41.4241 5.77863 40.9391C8.64863 40.4541 10.7286 40.9121 11.2176 42.2331C11.7066 43.5541 10.7656 46.0331 10.1036 49.4941C9.56709 52.7149 9.74806 56.0143 10.6336 59.1571C11.2646 60.7001 12.2946 61.6571 12.3526 62.4681C12.3866 62.9391 11.8796 63.7681 10.6336 64.7301C9.0592 65.9171 7.15635 66.5884 5.18563 66.6521C5.06363 66.6588 4.9443 66.6621 4.82763 66.6621C2.10863 66.6691 0.987634 64.8411 0.445634 62.3591ZM5.44563 35.0781C5.15056 34.621 4.95938 34.1046 4.8856 33.5655C4.81183 33.0264 4.85724 32.4777 5.01863 31.9581C5.55846 31.0566 6.28843 30.2836 7.15763 29.6931C8.51377 29.0717 9.97135 28.7014 11.4596 28.6001C12.401 28.5981 13.3148 28.9178 14.0496 29.5061C14.4208 30.071 14.6032 30.739 14.5706 31.4141C14.5593 31.7493 14.4816 32.079 14.342 32.384C14.2025 32.689 14.0038 32.9633 13.7576 33.1911C13.0145 33.9563 12.2065 34.6555 11.3426 35.2811C10.4343 35.7304 9.44518 35.9932 8.43363 36.0541H8.33363C7.29627 36.0231 6.29176 35.6833 5.44863 35.0781H5.44563Z" fill="#1B3254"/>
<defs>
<filter id="filter0_d_19_9241" x="128.704" y="71.4209" width="18.268" height="22.251" filterUnits="userSpaceOnUse" color-interpolation-filters="sRGB">
<feFlood flood-opacity="0" result="BackgroundImageFix"/>
<feColorMatrix in="SourceAlpha" type="matrix" values="0 0 0 0 0 0 0 0 0 0 0 0 0 0 0 0 0 0 127 0" result="hardAlpha"/>
<feOffset dx="4" dy="1"/>
<feGaussianBlur stdDeviation="2"/>
<feColorMatrix type="matrix" values="0 0 0 0 0 0 0 0 0 0 0 0 0 0 0 0 0 0 0.349 0"/>
<feBlend mode="normal" in2="BackgroundImageFix" result="effect1_dropShadow_19_9241"/>
<feBlend mode="normal" in="SourceGraphic" in2="effect1_dropShadow_19_9241" result="shape"/>
</filter>
</defs>
</svg>
