<svg width="179" height="116" viewBox="0 0 179 116" fill="none" xmlns="http://www.w3.org/2000/svg">
<g filter="url(#filter0_d_617_1721)">
<path d="M155.129 77.8242C155.311 77.516 155.594 77.28 155.93 77.1562C156.266 77.0324 156.635 77.0282 156.973 77.1444C157.282 77.2576 157.562 77.4365 157.794 77.6687C158.027 77.901 158.206 78.181 158.319 78.4894C158.882 79.6779 158.534 81.2945 156.903 82.6637C156.503 82.5332 156.11 82.3808 155.727 82.2073C156.229 81.3139 156.506 81.1065 156.148 80.3859C155.916 79.919 155.6 80.0144 155.268 79.4752C155.083 79.2449 154.971 78.9649 154.947 78.6709C154.922 78.3768 154.985 78.0821 155.129 77.8242Z" fill="#1B3254"/>
<path d="M167.243 79.4866C166.864 79.4866 166.371 79.4659 165.794 79.4266C166.077 78.9279 166.262 78.3796 166.339 77.8113C166.483 76.9153 166.343 75.9967 165.94 75.1838C165.089 73.5791 163.705 72.3215 162.026 71.6282C160.568 70.8855 158.955 70.4979 157.318 70.4972C156.337 70.5123 155.359 70.5951 154.389 70.7448C152.94 70.9909 151.519 71.3826 150.148 71.914C149.658 72.0874 149.194 72.2499 148.781 72.3753C148.002 72.6027 147.194 72.7177 146.382 72.7167C145.337 72.7424 144.304 72.5003 143.38 72.0132C142.446 71.481 141.673 70.7072 141.142 69.773C140.602 68.8362 140.321 67.7729 140.326 66.6918C140.324 66.0852 140.407 65.4813 140.572 64.8976C140.738 64.3201 140.986 63.7692 141.308 63.2616C142.199 61.9847 143.308 60.8752 144.585 59.9841C143.887 59.5441 143.248 59.0175 142.682 58.4167C142.126 57.8197 141.649 57.1532 141.264 56.4339C140.875 55.7139 140.578 54.9481 140.38 54.1543C140.182 53.3447 140.083 52.5141 140.085 51.6807C140.08 50.7021 140.209 49.7275 140.468 48.7838C140.724 47.8706 141.112 46.9995 141.619 46.1978C142.155 45.3591 142.799 44.5946 143.535 43.9237C144.358 43.177 145.257 42.519 146.218 41.9605C147.802 41.0337 149.515 40.3464 151.301 39.9209C153.288 39.4516 155.324 39.2209 157.366 39.2338C158.481 39.2153 159.596 39.2882 160.699 39.4519C161.982 39.717 163.235 40.1102 164.44 40.6255C164.514 40.6721 164.591 40.714 164.67 40.7509C164.749 40.7902 164.838 40.8349 164.948 40.896C165.856 41.3567 166.703 41.9274 167.471 42.5952C168.228 43.2383 168.93 43.9431 169.571 44.7025C170.324 45.6027 170.915 46.6277 171.316 47.7313C171.708 48.8446 171.904 50.0172 171.897 51.1975C171.9 52.0614 171.79 52.9219 171.57 53.7573C171.341 54.6043 171.006 55.419 170.573 56.1819C170.131 56.9655 169.596 57.6931 168.98 58.3491C168.342 59.0237 167.63 59.6241 166.857 60.1389C165.367 61.1436 163.725 61.9012 161.994 62.3825C160.114 62.894 158.172 63.1458 156.224 63.1307C154.449 63.1434 152.677 62.9713 150.937 62.617C149.403 62.3018 147.918 61.7835 146.52 61.0758C145.578 61.7172 145.102 62.3781 145.102 63.0391C145.102 63.8211 145.641 64.289 146.703 64.4286C147.98 64.6151 149.267 64.7244 150.557 64.7558C150.864 64.7593 151.171 64.7422 151.476 64.7045L151.657 64.674H160.69C160.69 64.674 160.767 64.674 160.9 64.674C162.796 64.6533 164.682 64.9641 166.471 65.5924C167.417 65.9576 168.306 66.4552 169.113 67.0702C169.665 67.5244 170.155 68.05 170.57 68.6332C170.709 68.8197 170.858 69.0062 171.006 69.1862C171.953 70.2261 172.59 71.5109 172.843 72.8945C173.026 73.7893 173.049 74.7095 172.911 75.6125C172.813 76.2472 172.549 76.8451 172.148 77.3467C171.571 78.0397 170.842 78.5903 170.018 78.9554C169.14 79.3233 168.195 79.5042 167.243 79.4866ZM157.364 44.0939C156.942 44.0917 156.522 44.1404 156.112 44.2389C155.452 44.4014 155.116 44.5901 155.057 44.8312C154.971 45.1834 155.468 45.6208 156.155 46.2261C156.871 46.8166 157.517 47.4862 158.081 48.2221C158.735 49.076 159.087 50.1222 159.084 51.1975C159.063 53.5152 157.484 54.9396 156.336 55.9801C155.659 56.5931 155.123 57.0774 155.194 57.5137C155.24 57.7972 155.534 58.0481 156.115 58.3022C156.584 58.5001 157.09 58.5986 157.599 58.5912C159.486 58.4651 161.267 57.6802 162.634 56.3739C163.4 55.737 164.025 54.9483 164.471 54.0575C164.916 53.1668 165.173 52.1933 165.223 51.1986C165.223 47.1979 161 44.096 157.37 44.0949L157.364 44.0939ZM149.348 46.8206C149.099 46.8206 148.856 46.8943 148.649 47.0325C148.442 47.1707 148.281 47.3672 148.186 47.597C148.09 47.8269 148.065 48.0799 148.114 48.324C148.162 48.5681 148.282 48.7923 148.458 48.9684C148.633 49.1446 148.857 49.2646 149.101 49.3134C149.345 49.3622 149.598 49.3376 149.828 49.2427C150.058 49.1478 150.255 48.9868 150.394 48.7801C150.532 48.5734 150.607 48.3302 150.607 48.0814C150.607 47.7479 150.474 47.4281 150.238 47.1921C150.003 46.9562 149.683 46.8233 149.349 46.8227L149.348 46.8206Z" fill="#1B3254"/>
<path d="M66.6427 0.643066H81.3277L77.1143 7.15992C77.1143 7.15992 76.6181 11.9589 64.8867 11.9589C53.1552 11.9589 53.2392 7.15992 53.2392 7.15992L66.6427 0.643066Z" fill="#FFF2E4"/>
<path d="M53.4715 2.19715L67.2796 0.555664L53.4715 7.15977C53.4715 7.15977 53.0047 11.9588 41.2733 11.9588C29.5419 11.9588 29.6259 7.15977 29.6259 7.15977L53.4715 2.19715Z" fill="#FD5E29"/>
<path d="M81.3745 0.555664H96.0606L100.7 7.15977C100.7 7.15977 100.233 11.9588 88.5011 11.9588C76.7697 11.9588 76.8537 7.15977 76.8537 7.15977L81.3745 0.555664Z" fill="#FD5E29"/>
<path d="M125.467 2.19715L110.586 0.555664L124.248 7.15977C124.248 7.15977 124.24 11.9741 135.971 11.9741C147.702 11.9741 148.09 7.16522 148.09 7.16522L125.467 2.19715Z" fill="#FD5E29"/>
<path d="M110.747 0.555664H96.0607L100.604 7.15977C100.604 7.15977 100.714 11.9719 112.445 11.9719C124.176 11.9719 124.477 7.16304 124.477 7.16304L110.747 0.555664Z" fill="#FFF2E4"/>
<path d="M53.4715 7.16016C53.4715 7.16016 53.0047 17.7202 41.2733 17.7202C29.5419 17.7202 29.6259 7.16016 29.6259 7.16016H53.4715Z" fill="#E44D1C"/>
<path d="M77.086 7.16016C77.086 7.16016 76.6192 17.7202 64.8877 17.7202C53.1563 17.7202 53.2403 7.16016 53.2403 7.16016H77.086Z" fill="#FFC48F"/>
<path d="M100.699 7.16016C100.699 7.16016 100.233 17.7202 88.5011 17.7202C76.7697 17.7202 76.8537 7.16016 76.8537 7.16016H100.699Z" fill="#E44D1C"/>
<path d="M124.546 7.16016C124.546 7.16016 124.079 17.7202 112.348 17.7202C100.616 17.7202 100.7 7.16016 100.7 7.16016H124.546Z" fill="#FFC48F"/>
<path d="M148.091 7.16016C148.091 7.16016 147.624 17.7202 135.893 17.7202C124.161 17.7202 124.245 7.16016 124.245 7.16016H148.091Z" fill="#E44D1C"/>
<path d="M82.534 60.7405C82.4933 61.3692 82.6692 61.9927 83.0324 62.5074C83.2016 62.7136 83.4169 62.8772 83.6609 62.9848C83.9049 63.0924 84.1709 63.1411 84.4372 63.127C85.1571 63.0772 85.8763 63.2346 86.5095 63.5807C86.9838 64.0272 87.2789 64.6314 87.3395 65.28V71.9877H83.6639C81.3277 71.9877 77.4939 72.2058 74.8032 70.1335C73.6699 69.3572 72.7484 68.3101 72.1225 67.0873C71.4966 65.8644 71.1861 64.5046 71.2192 63.1313V32.422H79.479C80.3256 32.3423 81.1756 32.5333 81.9068 32.9673C82.3916 33.5712 82.6171 34.3427 82.534 35.1127V60.7405Z" fill="#FD5E29"/>
<path d="M154.597 81.9519L158.487 84.0402L159.085 84.9125L160.384 94.3324L160.299 95.0688L159.787 95.89L159.145 96.2259L153.415 96.9005L152.593 96.9591L154.892 93.446L154.887 90.1858L155.904 86.2556L153.91 82.0767C154.016 81.9835 154.116 81.8825 154.207 81.7747C154.207 81.7747 154.567 81.9261 154.597 81.9519Z" fill="#FD5E29"/>
<path d="M154.66 85.7412C155.029 85.7671 155.349 85.4889 155.374 85.1199C155.4 84.751 155.122 84.431 154.753 84.4052C154.384 84.3793 154.064 84.6575 154.038 85.0264C154.013 85.3954 154.291 85.7154 154.66 85.7412Z" fill="#FD5E29"/>
<g filter="url(#filter1_d_617_1721)">
<path d="M153.563 97.269L147.867 95.8194L147.064 95.5773L146.557 94.6371L146.435 93.8976L148.566 85.2507L149.037 84.0106L149.614 83.5045L153.748 81.9034C153.884 81.8538 154.015 81.7944 154.142 81.7256L154.151 81.7332C154.256 81.8284 154.355 81.9297 154.448 82.0364L157.384 85.4416L157.634 86.4897L155.431 95.9198L155.082 96.5884L154.296 97.1817L153.562 97.269H153.563ZM153.306 84.5723C153.153 84.5722 153.004 84.6248 152.885 84.7213C152.765 84.8179 152.683 84.9525 152.651 85.1026C152.619 85.2527 152.64 85.4093 152.709 85.546C152.779 85.6828 152.893 85.7914 153.034 85.8538C153.119 85.892 153.212 85.9117 153.305 85.9116C153.483 85.9116 153.653 85.8411 153.779 85.7155C153.904 85.5899 153.975 85.4196 153.975 85.242C153.975 85.0643 153.904 84.894 153.779 84.7684C153.653 84.6428 153.483 84.5723 153.305 84.5723H153.306Z" fill="#FD5E29"/>
</g>
<path d="M15.3169 85.5823C19.4171 86.1642 40.7002 94.7763 69.7881 98.1356C82.4821 99.085 95.2468 98.1301 107.658 95.3027C111.341 94.4168 114.951 93.2521 118.457 91.8188C121.033 90.7015 123.543 89.436 125.973 88.0286C128.406 86.6762 131.353 84.9423 134.462 83.5466C140.25 80.9469 142.844 80.7323 143.207 80.6748C144.879 80.4478 146.581 80.5825 148.196 81.0698C149.812 81.5572 151.305 82.3858 152.573 83.4997C152.74 83.6505 152.92 83.8729 153.167 84.1337C153.279 84.2488 153.414 84.4012 153.603 84.5935C153.792 84.7857 153.76 84.7284 153.819 84.8068C153.887 84.8857 153.934 84.9801 153.956 85.0816C153.885 85.1662 153.79 85.2275 153.683 85.2577C153.576 85.2879 153.463 85.2857 153.358 85.2512C153.154 85.175 152.965 85.0634 152.799 84.9216C152.659 84.805 152.308 84.5278 152.079 84.3792C149.791 82.8819 147.016 82.3208 144.327 82.812C141.401 83.4502 138.568 84.4589 135.897 85.8138C131.589 87.9483 126.886 91.5976 122.354 94.1463C118.129 96.5898 113.623 98.5112 108.935 99.8683C96.161 103.635 82.7256 104.607 69.5424 102.719C38.0354 98.254 16.8847 87.3028 15.3169 85.5823Z" fill="#1B3254"/>
<path d="M55.3107 48.1378C55.373 46.6269 55.1388 45.1181 54.6213 43.6973C53.8349 42.07 53.0944 40.5721 51.5423 40.3048C49.9903 40.0376 45.1161 40.8616 42.0534 42.8271C38.9908 44.7925 35.7743 47.8352 36.3633 51.6537C36.9522 55.4722 41.0455 57.5624 42.2529 58.2255C43.4602 58.8887 45.1629 60.2757 45.3068 60.8287C45.3635 61.2388 44.4473 62.4823 42.4579 63.2774C40.4685 64.0725 37.659 63.903 36.3164 63.9325C36.1666 65.7193 36.3716 67.5177 36.9195 69.2251C37.8019 71.3225 38.9537 72.3146 39.8252 72.4673C43.6733 72.4307 47.4379 71.3399 50.7102 69.3145C54.9039 66.4962 56.2223 64.203 56.423 61.2505C56.6237 58.298 54.7675 56.2459 53.2111 54.8651C51.6547 53.4843 48.3139 51.9267 47.4304 50.6429C47.9169 49.7638 49.1112 49.3041 51.1093 48.665C52.4601 48.2088 53.8891 48.0292 55.3107 48.1378Z" fill="#FD5E29"/>
<path d="M114.225 72.7021C112.57 72.7035 110.924 72.4673 109.336 72.0007C107.748 71.5355 106.239 70.8293 104.865 69.9066C103.459 68.9624 102.222 67.7884 101.205 66.4339C100.117 64.9751 99.2898 63.3384 98.7612 61.5967C98.3439 60.2494 98.0819 58.8588 97.9802 57.4521C97.8884 56.1477 97.9513 54.837 98.1678 53.5474C98.5782 51.1101 99.558 48.8041 101.028 46.8168C101.778 45.8025 102.645 44.8803 103.611 44.0694C104.587 43.2521 105.655 42.5512 106.793 41.9807C107.955 41.3979 109.181 40.9521 110.446 40.6522C111.758 40.342 113.103 40.1857 114.452 40.1865C114.61 40.1865 114.769 40.1865 114.927 40.1931C117.085 40.1845 119.219 40.6389 121.186 41.5254C123.153 42.412 124.907 43.7102 126.329 45.3324C127.94 47.3431 129.114 49.6668 129.779 52.1558C130.443 54.6448 130.582 57.2447 130.188 59.7905H125.135H111.238H107.659C107.685 59.8427 107.707 59.8966 107.726 59.9519C108.077 60.9137 108.662 61.7725 109.43 62.4504C110.197 63.1283 111.121 63.6038 112.119 63.8337C112.904 64.0487 113.716 64.1559 114.53 64.1522C115.546 64.1355 116.556 64.0098 117.545 63.777L117.981 63.681C118.547 63.5319 119.127 63.4384 119.711 63.4018C119.858 63.3995 120.005 63.4171 120.147 63.4541C121.071 63.7387 121.854 64.362 122.337 65.1992C122.457 65.3596 122.581 65.5264 122.716 65.6944C123.238 66.3554 123.842 67.1123 124.426 67.8452L125.112 68.7069C123.615 70.0217 121.881 71.0399 120.003 71.7074C118.149 72.3697 116.194 72.7062 114.225 72.7021ZM114.62 47.7504C113.468 47.6949 112.321 47.9229 111.278 48.4145C110.235 48.9061 109.329 49.6462 108.64 50.5699C108.021 51.4097 107.581 52.3674 107.347 53.3838H121.517C121.351 52.3778 120.973 51.4186 120.408 50.5699C119.768 49.6406 118.899 48.8927 117.885 48.3988C116.871 47.9049 115.746 47.682 114.62 47.7515V47.7504Z" fill="#FD5E29"/>
<path d="M6.54586 68.57C6.11901 66.3514 5.97244 64.088 6.10959 61.8328C6.3659 57.7078 6.74655 52.0908 6.61457 51.4855C6.30814 50.4283 6.43366 49.2927 6.96359 48.3279C7.80233 46.8413 9.23222 45.7365 12.3625 45.2075C15.4928 44.6785 17.7614 45.178 18.2947 46.6188C18.8281 48.0596 17.8017 50.7634 17.0797 54.5383C16.4945 58.0511 16.6919 61.6499 17.6578 65.0776C18.346 66.7605 19.4694 67.8043 19.5327 68.6889C19.5697 69.2026 19.0168 70.1068 17.6578 71.156C15.9406 72.4506 13.8651 73.1828 11.7157 73.2523C11.5826 73.2596 11.4525 73.2632 11.3252 73.2632C8.35967 73.2708 7.13701 71.2771 6.54586 68.57ZM11.9993 38.815C11.6775 38.3164 11.4689 37.7532 11.3885 37.1652C11.308 36.5773 11.3575 35.9788 11.5336 35.412C12.1224 34.4287 12.9185 33.5857 13.8665 32.9416C15.3457 32.2639 16.9354 31.86 18.5587 31.7495C19.5854 31.7473 20.5821 32.096 21.3836 32.7377C21.7884 33.3538 21.9873 34.0824 21.9518 34.8187C21.9394 35.1843 21.8547 35.5439 21.7024 35.8766C21.5502 36.2092 21.3336 36.5084 21.0651 36.7569C20.2546 37.5914 19.3733 38.3541 18.4311 39.0364C17.4403 39.5264 16.3615 39.8131 15.2583 39.8795H15.1492C14.0178 39.8457 12.9222 39.475 12.0026 38.815H11.9993Z" fill="#1B3254"/>
</g>
<defs>
<filter id="filter0_d_617_1721" x="0.0598145" y="0.555664" width="178.94" height="115.101" filterUnits="userSpaceOnUse" color-interpolation-filters="sRGB">
<feFlood flood-opacity="0" result="BackgroundImageFix"/>
<feColorMatrix in="SourceAlpha" type="matrix" values="0 0 0 0 0 0 0 0 0 0 0 0 0 0 0 0 0 0 127 0" result="hardAlpha"/>
<feOffset dy="6"/>
<feGaussianBlur stdDeviation="3"/>
<feComposite in2="hardAlpha" operator="out"/>
<feColorMatrix type="matrix" values="0 0 0 0 0 0 0 0 0 0 0 0 0 0 0 0 0 0 0.18 0"/>
<feBlend mode="normal" in2="BackgroundImageFix" result="effect1_dropShadow_617_1721"/>
<feBlend mode="normal" in="SourceGraphic" in2="effect1_dropShadow_617_1721" result="shape"/>
</filter>
<filter id="filter1_d_617_1721" x="146.435" y="78.7256" width="19.1992" height="23.5435" filterUnits="userSpaceOnUse" color-interpolation-filters="sRGB">
<feFlood flood-opacity="0" result="BackgroundImageFix"/>
<feColorMatrix in="SourceAlpha" type="matrix" values="0 0 0 0 0 0 0 0 0 0 0 0 0 0 0 0 0 0 127 0" result="hardAlpha"/>
<feOffset dx="4" dy="1"/>
<feGaussianBlur stdDeviation="2"/>
<feColorMatrix type="matrix" values="0 0 0 0 0 0 0 0 0 0 0 0 0 0 0 0 0 0 0.349 0"/>
<feBlend mode="normal" in2="BackgroundImageFix" result="effect1_dropShadow_617_1721"/>
<feBlend mode="normal" in="SourceGraphic" in2="effect1_dropShadow_617_1721" result="shape"/>
</filter>
</defs>
</svg>
