<svg width="17" height="16" viewBox="0 0 22 21" fill="none" xmlns="http://www.w3.org/2000/svg">
<path d="M19.7734 20.712L14.6729 15.623C13.2047 16.6821 11.4401 17.2514 9.62988 17.25C7.34168 17.2476 5.14796 16.3381 3.5293 14.7207C1.91064 13.1034 0.999351 10.9103 0.995117 8.62207C0.999618 6.33441 1.91153 4.14189 3.53027 2.52539C5.14902 0.908894 7.34222 0.000342889 9.62988 -0.000976562C11.9178 7.75772e-05 14.1123 0.908528 15.7314 2.52502C17.3506 4.14152 18.2618 6.33415 18.2666 8.62207C18.2679 10.5813 17.5997 12.4821 16.3721 14.009L21.4229 19.056C21.6215 19.2756 21.7256 19.565 21.7109 19.8607C21.6963 20.1564 21.5641 20.4342 21.3447 20.6331C21.1171 20.8638 20.8085 20.9956 20.4844 21C20.3527 21.0012 20.2216 20.9763 20.0996 20.9269C19.9776 20.8775 19.8672 20.8045 19.7734 20.712ZM3.37305 8.59998C3.37622 10.2666 4.04034 11.8639 5.21973 13.0414C6.39912 14.2189 7.99748 14.8805 9.66406 14.881C11.3289 14.8783 12.9245 14.2157 14.1016 13.0383C15.2786 11.8609 15.9412 10.2648 15.9434 8.59998C15.941 6.93569 15.2787 5.34037 14.1016 4.16382C12.9245 2.98727 11.3284 2.32556 9.66406 2.32397C7.99871 2.3245 6.40127 2.98556 5.22266 4.16211C4.04405 5.33866 3.3804 6.93463 3.37695 8.59998H3.37305ZM7.07324 6.97705C6.98253 6.81369 6.93457 6.62985 6.93457 6.44299C6.93457 6.25613 6.98253 6.07242 7.07324 5.90906C7.44378 5.53671 7.88466 5.24157 8.37012 5.04089C8.85557 4.84022 9.37607 4.73795 9.90137 4.73999C10.9734 4.73531 12.0029 5.15573 12.7656 5.90906C12.8623 6.0704 12.9141 6.2549 12.9141 6.44299C12.9141 6.63108 12.8623 6.8157 12.7656 6.97705C12.6622 7.10898 12.5246 7.20937 12.3672 7.26697C12.2098 7.32457 12.0391 7.33701 11.875 7.30298C11.6316 7.01683 11.3293 6.78712 10.9883 6.62964C10.6472 6.47216 10.276 6.39069 9.90039 6.39099C9.5252 6.39165 9.15405 6.47356 8.81348 6.63098C8.47291 6.78841 8.17035 7.01761 7.92676 7.30298C7.90392 7.32512 7.87675 7.34205 7.84668 7.35242C7.81661 7.36279 7.78456 7.3664 7.75293 7.36304C7.61845 7.35482 7.48812 7.31577 7.37109 7.24902C7.25406 7.18227 7.15366 7.08959 7.07812 6.97803L7.07324 6.97705Z" fill="#1B3254"/>
</svg>
