<svg width="44" height="44" viewBox="0 0 44 44" fill="none" xmlns="http://www.w3.org/2000/svg">
<path d="M41.5556 30.5556C38.5909 30.5599 35.6448 30.0895 32.8289 29.1622C32.3991 29.0256 31.9402 29.008 31.5012 29.1113C31.0622 29.2146 30.6594 29.4349 30.3356 29.7489L24.9578 35.1267C18.0251 31.5998 12.3863 25.9695 8.84889 19.0422L14.2267 13.64C14.5496 13.327 14.778 12.9296 14.8861 12.4931C14.9941 12.0566 14.9774 11.5986 14.8378 11.1711C13.9105 8.35525 13.4401 5.40906 13.4444 2.44444C13.4444 1.79614 13.1869 1.17438 12.7285 0.715961C12.2701 0.257539 11.6483 0 11 0H2.44444C1.79614 0 1.17438 0.257539 0.715961 0.715961C0.257539 1.17438 0 1.79614 0 2.44444C0 13.4657 4.37816 24.0355 12.1713 31.8287C19.9645 39.6218 30.5343 44 41.5556 44C42.2039 44 42.8256 43.7425 43.284 43.284C43.7425 42.8256 44 42.2039 44 41.5556V33C44 32.3517 43.7425 31.7299 43.284 31.2715C42.8256 30.8131 42.2039 30.5556 41.5556 30.5556Z" fill="#8D98A9"/>
</svg>
