  <svg
        width="27"
        height="27"
        viewBox="0 0 27 27"
        fill="none"
        xmlns="http://www.w3.org/2000/svg"
      >
        <path
          d="M8.32902 21.2573C7.81756 21.2573 7.31758 21.409 6.89232 21.6931C6.46705 21.9773 6.1356 22.3811 5.93987 22.8537C5.74414 23.3262 5.69293 23.8462 5.79271 24.3478C5.89249 24.8494 6.13878 25.3102 6.50044 25.6719C6.8621 26.0335 7.32288 26.2798 7.82452 26.3796C8.32615 26.4794 8.84611 26.4282 9.31864 26.2324C9.79117 26.0367 10.195 25.7053 10.4792 25.28C10.7634 24.8547 10.915 24.3548 10.915 23.8433C10.9155 23.5035 10.849 23.167 10.7192 22.853C10.5895 22.5391 10.399 22.2538 10.1588 22.0135C9.91854 21.7733 9.63325 21.5828 9.31926 21.4531C9.00528 21.3233 8.66877 21.2568 8.32902 21.2573ZM0.572021 0.571289V3.15729H3.15802L7.81202 12.9713L6.06702 16.1373C5.85329 16.5158 5.74196 16.9436 5.74402 17.3783C5.74587 18.0636 6.01892 18.7203 6.50348 19.2048C6.98805 19.6894 7.64474 19.9624 8.33002 19.9643H23.843V17.3783H8.87202C8.82949 17.3787 8.78731 17.3706 8.74794 17.3545C8.70857 17.3384 8.67281 17.3147 8.64273 17.2846C8.61266 17.2545 8.58888 17.2187 8.57279 17.1794C8.5567 17.14 8.54862 17.0978 8.54902 17.0553L8.58802 16.9003L9.75202 14.7933H19.384C19.8459 14.7947 20.2997 14.6718 20.6977 14.4375C21.0957 14.2031 21.4232 13.8659 21.646 13.4613L26.272 5.07129C26.3762 4.88103 26.4295 4.66716 26.427 4.45029C26.4252 4.10793 26.2884 3.78012 26.0463 3.53803C25.8042 3.29594 25.4764 3.15913 25.134 3.15729H6.01502L4.80002 0.571289H0.572021ZM21.258 21.2573C20.7466 21.2573 20.2466 21.409 19.8213 21.6931C19.3961 21.9773 19.0646 22.3811 18.8689 22.8537C18.6731 23.3262 18.6219 23.8462 18.7217 24.3478C18.8215 24.8494 19.0678 25.3102 19.4294 25.6719C19.7911 26.0335 20.2519 26.2798 20.7535 26.3796C21.2552 26.4794 21.7751 26.4282 22.2476 26.2324C22.7202 26.0367 23.124 25.7053 23.4082 25.28C23.6924 24.8547 23.844 24.3548 23.844 23.8433C23.8445 23.5035 23.778 23.167 23.6482 22.853C23.5185 22.5391 23.328 22.2538 23.0878 22.0135C22.8475 21.7733 22.5623 21.5828 22.2483 21.4531C21.9343 21.3233 21.5978 21.2568 21.258 21.2573Z"
          fill="white"
        />
      </svg>