<svg width="234" height="146" viewBox="0 0 234 146" fill="none" xmlns="http://www.w3.org/2000/svg">
<path d="M223.903 108.293C224.301 107.595 224.561 106.827 224.67 106.031C224.872 104.776 224.676 103.489 224.111 102.35C222.688 99.5468 220.432 98.216 218.625 97.3699C216.224 96.2454 214.312 95.7871 212.026 95.7871C210.651 95.808 209.279 95.9238 207.92 96.1334C205.762 96.4357 203.75 97.1452 201.975 97.7713C201.288 98.0136 200.639 98.2413 200.06 98.4176C198.966 98.7361 197.832 98.8969 196.693 98.895C195.549 98.895 193.89 98.7243 192.485 97.9099C191.178 97.1657 190.096 96.0841 189.351 94.7783C188.594 93.466 188.2 91.9764 188.208 90.4618C188.205 89.6123 188.321 88.7666 188.552 87.9491C188.785 87.1402 189.133 86.3686 189.584 85.6577C190.498 84.2111 192.044 82.6661 194.179 81.0665C193.2 80.4503 192.304 79.7126 191.511 78.8711C190.73 78.0352 190.061 77.1017 189.52 76.094C188.975 75.0832 188.559 74.008 188.282 72.8937C188.005 71.7597 187.867 70.5964 187.87 69.4291C187.864 68.0586 188.044 66.6935 188.407 65.3718C188.766 64.0924 189.309 62.8718 190.019 61.7483C190.771 60.572 191.674 59.4995 192.706 58.5585C193.859 57.5105 195.12 56.5868 196.467 55.8026C198.688 54.5046 201.089 53.542 203.592 52.9462C206.377 52.2923 209.231 51.9727 212.093 51.9941C213.658 51.9675 215.224 52.0694 216.773 52.2987C218.573 52.5775 221.224 53.6051 222.01 53.9439C222.114 54.0093 222.221 54.0682 222.332 54.1201C222.442 54.1751 222.567 54.2377 222.721 54.324C223.993 54.9691 225.181 55.7684 226.257 56.7036C227.319 57.6042 228.303 58.5913 229.201 59.6549C230.257 60.9159 231.085 62.3515 231.647 63.897C232.196 65.4567 232.472 67.0994 232.462 68.7529C232.463 69.9635 232.307 71.1691 231.996 72.3393C231.675 73.5257 231.206 74.6667 230.599 75.7354C229.978 76.8331 229.228 77.8525 228.364 78.7715C227.47 79.7165 226.472 80.5576 225.389 81.2789C223.301 82.6861 220.998 83.7471 218.571 84.4209C215.936 85.1374 213.215 85.4899 210.483 85.4685C207.995 85.4863 205.511 85.2452 203.073 84.749C200.925 84.3068 198.846 83.581 196.89 82.5906C195.569 83.489 194.9 84.4144 194.9 85.3413C194.9 86.4365 195.655 87.0913 197.144 87.2881C198.934 87.5477 200.738 87.699 202.546 87.7414C202.976 87.7461 203.407 87.7219 203.835 87.6689L204.089 87.6266H216.751C216.751 87.6266 216.859 87.6236 217.045 87.6236C218.15 87.6236 221.98 87.7164 224.855 88.9107C226.181 89.4224 227.427 90.1195 228.557 90.9812C229.332 91.6176 230.019 92.3539 230.6 93.171C230.796 93.4322 231.004 93.693 231.205 93.9454C232.245 95.2486 233.322 96.5959 233.779 99.1379C234.036 100.391 234.069 101.68 233.876 102.945C233.735 103.835 233.364 104.672 232.798 105.374C231.99 106.344 230.968 107.116 229.813 107.627C228.587 108.143 227.268 108.399 225.938 108.378C225.403 108.377 224.72 108.349 223.903 108.293ZM212.089 58.8026C211.498 58.7995 210.908 58.8677 210.333 59.0056C209.408 59.2336 208.938 59.4968 208.855 59.8347C208.735 60.3279 209.431 60.9408 210.396 61.7883C211.4 62.6152 212.307 63.5533 213.1 64.5845C214.016 65.7807 214.51 67.2463 214.506 68.7526C214.465 71.9994 212.257 73.9944 210.645 75.4507C209.695 76.3091 208.944 76.9874 209.044 77.5982C209.109 77.9954 209.518 78.3461 210.334 78.7028C210.992 78.9797 211.701 79.1174 212.415 79.107C214.649 79.107 217.352 77.9169 219.473 76.0015C221.779 73.9157 223.102 71.2744 223.102 68.752C223.102 63.1488 217.183 58.8026 212.09 58.8021L212.089 58.8026ZM199.09 64.3879C199.09 64.7366 199.194 65.0773 199.388 65.3672C199.581 65.6571 199.857 65.883 200.179 66.0164C200.501 66.1498 200.856 66.1847 201.198 66.1167C201.54 66.0487 201.855 65.8808 202.101 65.6343C202.348 65.3878 202.516 65.0737 202.584 64.7318C202.652 64.3899 202.617 64.0355 202.484 63.7134C202.35 63.3913 202.124 63.116 201.834 62.9223C201.544 62.7287 201.203 62.6253 200.854 62.6253C200.387 62.6257 199.938 62.8116 199.607 63.1421C199.277 63.4725 199.091 63.9206 199.09 64.3879ZM96.3611 95.674C92.5889 92.7618 91.3368 89.5608 91.3368 85.8654V42.8564H102.916C102.916 42.8564 105.249 42.6764 106.319 43.6185C107.39 44.5606 107.199 46.6241 107.199 46.6241V82.5219C107.199 83.594 107.432 84.4192 107.898 84.9975C108.135 85.2864 108.437 85.5154 108.779 85.6661C109.121 85.8168 109.494 85.885 109.867 85.8651C109.867 85.8651 111.753 85.7476 112.769 86.4999C113.786 87.2523 113.933 88.8795 113.933 88.8795V98.2757H108.782C108.208 98.2757 107.569 98.2851 106.887 98.2851C103.673 98.2862 99.4727 98.0759 96.3611 95.674ZM171.636 21.1631C169.547 19.6551 167.928 17.5877 166.965 15.1994V8.72928L148.779 0.24971L167.379 2.30027L199.09 9.25103V9.25397C199.032 10.0319 198.912 10.8039 198.731 11.5628C198.324 13.352 197.641 15.0674 196.708 16.6477C195.466 18.7489 193.708 20.499 191.601 21.7327C190.302 22.4819 188.904 23.0456 187.448 23.4073C185.663 23.8439 183.83 24.0575 181.992 24.043C177.799 24.0433 174.315 23.0744 171.636 21.1631ZM138.135 20.7894C137.014 19.9038 136.044 18.8435 135.261 17.6492C134.583 16.6112 134.034 15.4947 133.625 14.3243V9.2619L127.374 0H145.03L163.992 9.24222L164.925 9.75251V14.1592C164.462 15.3447 163.863 16.4725 163.14 17.52C162.3 18.7344 161.277 19.8122 160.108 20.7157C157.241 22.9237 153.5 24.043 148.988 24.043C144.528 24.0433 140.876 22.9487 138.135 20.7894ZM100.397 14.8551V9.26924L106.654 0H125.245L131.551 9.3421V14.0226C131.096 15.2168 130.504 16.3542 129.787 17.4121C128.951 18.6426 127.93 19.7362 126.759 20.6543C123.881 22.9031 120.113 24.0436 115.558 24.0436C106.005 24.0433 102.04 19.0476 100.397 14.8566V14.8551ZM67.3352 14.9532V9.86737L68.3301 9.32242L87.206 0.122505H104.443L98.2688 9.26895V14.4794C97.256 17.0096 95.5706 19.2153 93.3947 20.8581C90.553 22.9733 86.8746 24.0439 82.4622 24.0439C72.9625 24.0433 68.9922 19.1002 67.3352 14.9532ZM37.3507 19.7618C33.0741 15.4817 33.0347 9.50897 33.0352 9.25691V9.25074L66.4603 2.29998L83.7551 0.243541L65.3652 8.80625V13.9858C64.9127 15.1823 64.3228 16.3224 63.6075 17.3831C62.7733 18.6175 61.7528 19.7153 60.5823 20.6375C57.7012 22.8973 53.9267 24.0433 49.3616 24.0433C44.2304 24.0433 40.1895 22.6029 37.3507 19.7618Z" fill="#E6E6E6"/>
<path d="M198.777 129.673L197.651 129.33L196.94 128.014L196.769 126.982L199.756 114.869L200.417 113.132L201.226 112.423L201.282 112.401L201.422 112.465C202.64 113.026 204 113.699 204.274 113.879C204.438 113.985 204.664 114.152 204.967 114.388C204.887 114.718 204.909 115.064 205.031 115.381C205.153 115.698 205.369 115.97 205.649 116.161C205.929 116.352 206.261 116.454 206.601 116.452C206.941 116.45 207.272 116.345 207.55 116.151C207.828 115.956 208.041 115.682 208.159 115.364C208.278 115.046 208.296 114.699 208.213 114.371C208.13 114.042 207.948 113.746 207.692 113.523C207.436 113.299 207.119 113.159 206.781 113.121C206.496 112.775 206.189 112.448 205.861 112.142C205.457 111.779 205.034 111.437 204.593 111.12L207.02 110.18C207.209 110.11 207.394 110.028 207.572 109.932C207.572 109.932 207.575 109.934 207.579 109.938L207.584 109.943L207.654 110.011L207.661 110.004L207.664 110.001L207.696 110.015L207.778 110.049L207.718 110.073C207.819 110.164 207.913 110.262 208.001 110.366L212.117 115.136L212.467 116.605L209.381 129.813L208.89 130.749L207.788 131.582L206.759 131.704L198.777 129.673ZM209.566 130.833L210.066 130.456L210.556 129.52L213.644 116.311L213.294 114.842L210.292 111.366L213.662 113.174L214.499 114.397L216.319 127.588L216.202 128.618L215.485 129.768L214.585 130.242L209.567 130.833H209.566Z" fill="#E6E6E6"/>
<path d="M12.9784 115.339C18.7254 116.154 48.5597 128.218 89.3321 132.923C110.292 134.423 128.936 132.163 142.416 128.955C147.578 127.714 152.638 126.083 157.552 124.075C162.325 122.08 166.607 119.592 168.093 118.767C171.505 116.873 175.635 114.443 179.992 112.488C188.105 108.848 191.742 108.546 192.25 108.465C197.989 107.793 202.526 109.856 205.379 112.422C205.614 112.633 205.866 112.944 206.213 113.31C206.369 113.472 206.56 113.684 206.823 113.955C207.087 114.226 207.044 114.143 207.126 114.254C207.221 114.364 207.288 114.497 207.319 114.639C207.048 114.942 206.769 114.782 206.514 114.715C206.228 114.608 205.963 114.452 205.731 114.253C205.533 114.095 205.041 113.701 204.72 113.494C202.014 111.732 197.787 110.583 193.82 111.459C193.419 111.548 188.435 112.481 182.003 115.665C175.964 118.654 169.372 123.765 163.023 127.335C156.675 130.905 151.685 133.1 144.213 135.352C128.905 139.963 109.04 142.326 88.9954 139.343C44.8243 133.082 15.1768 117.738 12.9784 115.339Z" fill="#E6E6E6"/>
<path d="M209.729 105.383C209.984 104.951 210.381 104.62 210.852 104.447C211.323 104.273 211.84 104.267 212.315 104.43C213.315 104.747 213.82 105.511 214.201 106.315C214.99 107.979 214.342 110.478 212.063 112.394C211.542 112.22 210.96 111.68 210.29 111.379C210.956 110.511 211.666 109.98 211.165 108.969C210.866 108.156 210.16 108.145 209.807 107.581C209.589 107.259 209.466 106.882 209.452 106.493C209.438 106.104 209.534 105.719 209.729 105.383Z" fill="#E6E6E6"/>
<path d="M69.038 64.6478C68.9342 63.5787 69.1742 60.7172 68.072 58.4343C66.9698 56.1514 65.932 54.0554 63.7568 53.6788C61.5816 53.3022 54.7481 54.4554 50.4541 57.2087C46.1601 59.962 41.6526 64.221 42.477 69.5766C43.3013 74.9321 49.0414 77.8459 50.738 78.7792C52.4347 79.7125 54.8184 81.6503 55.0142 82.425C55.0938 83.0008 53.8088 84.7457 51.0209 85.8585C48.233 86.9714 44.2979 86.73 42.4111 86.7726C42.454 87.4227 42.0201 91.2474 43.2563 94.1876C44.4925 97.1277 46.108 98.5096 47.3292 98.727C48.5505 98.9444 56.7075 98.2514 62.5873 94.3083C68.4671 90.3653 70.3139 87.1533 70.5956 83.016C70.8772 78.8787 68.2731 76.0074 66.0937 74.0687C63.9144 72.1301 59.227 69.9558 57.9937 68.1579C58.677 66.9258 60.3509 66.282 63.1509 65.3857C65.9508 64.4894 67.3102 64.6278 69.038 64.6478Z" fill="#E6E6E6"/>
<path d="M151.619 99.0525C149.299 99.0547 146.992 98.724 144.767 98.0707C142.538 97.4198 140.422 96.4308 138.494 95.1382C136.523 93.8156 134.789 92.1712 133.364 90.2739C131.84 88.2296 130.683 85.9365 129.944 83.4967C129.359 81.6087 128.992 79.6599 128.849 77.6885C128.72 75.8612 128.808 74.025 129.112 72.2184C129.687 68.8058 131.061 65.5772 133.12 62.7949C134.173 61.374 135.389 60.0822 136.745 58.9464C138.112 57.8014 139.607 56.8192 141.201 56.0195C142.83 55.2033 144.548 54.579 146.321 54.159C148.162 53.7244 150.046 53.5055 151.937 53.5068C152.158 53.5068 152.382 53.5098 152.604 53.5157C159.159 53.6902 164.686 56.1793 168.587 60.7147C172.994 65.8402 174.966 73.2219 173.996 80.967H169.188H167.023H166.911C160.898 80.967 152.663 80.9635 147.43 80.9635C144.226 80.9635 142.539 80.9635 142.414 80.9659C142.451 81.039 142.482 81.1147 142.508 81.1924C143.55 83.9662 145.62 85.7958 148.661 86.6308C149.763 86.9318 150.9 87.0816 152.042 87.0761C153.466 87.0531 154.883 86.8771 156.269 86.5511C156.48 86.5059 156.686 86.4607 156.886 86.4169C157.68 86.2081 158.492 86.0773 159.311 86.0262C159.518 86.0225 159.725 86.047 159.926 86.0987C161.484 86.5294 162.152 87.4193 162.995 88.5456C163.164 88.77 163.337 89.0015 163.525 89.2398C164.257 90.1649 165.103 91.226 165.921 92.2522L165.923 92.2542C166.25 92.6655 166.573 93.0695 166.885 93.4605C164.784 95.302 162.352 96.7277 159.718 97.6615C157.119 98.5884 154.379 99.0591 151.619 99.0525ZM152.172 64.1028C147.645 64.1028 145.117 66.25 143.789 68.0514C142.922 69.23 142.305 70.5739 141.978 72.0001H161.841C161.611 70.5888 161.083 69.2427 160.293 68.0511C159.087 66.2503 156.699 64.1028 152.172 64.1028Z" fill="#E6E6E6"/>
<path d="M0.683228 93.4724C0.0241044 90.4586 -0.0981949 86.603 0.064969 84.0351C0.431573 78.2645 0.965457 70.3892 0.779362 69.5419C0.351601 68.0633 0.527392 66.4756 1.26827 65.1262C2.44422 63.0439 4.44776 61.4969 8.83613 60.7554C13.2245 60.0139 16.4034 60.7143 17.1513 62.7328C17.8992 64.7513 16.4602 68.5396 15.4488 73.8264C14.4375 79.1132 15.2936 86.2329 16.2585 88.5896C17.2233 90.9462 18.798 92.4142 18.8861 93.6487C18.9376 94.3681 18.1632 95.6343 16.2585 97.1053C14.5895 98.3952 11.9098 99.8209 7.92918 100.042C7.7424 100.052 7.56012 100.057 7.38236 100.057C3.22565 100.057 1.51228 97.2648 0.683228 93.4724ZM8.33194 51.7943C7.68987 51.1022 6.97959 48.3865 7.67899 47.0275C8.37839 45.6685 9.99827 44.1849 10.9443 43.5674C11.8904 42.9499 15.9907 41.8226 17.5217 41.9014C19.0528 41.9801 20.9138 42.5477 21.4809 43.2857C22.048 44.0236 22.2876 45.1511 22.2776 46.2002C22.2676 47.2493 21.8719 47.9673 21.0343 48.915C19.8985 50.0842 18.6633 51.1527 17.3427 52.1086C16.6019 52.6007 14.3872 53.2268 12.8949 53.2893C12.8435 53.2914 12.7909 53.2926 12.7377 53.2926C11.2374 53.2926 8.95196 52.4624 8.33194 51.7943Z" fill="#E6E6E6"/>
</svg>
