<svg width="28" height="37" viewBox="0 0 28 37" fill="none" xmlns="http://www.w3.org/2000/svg">
<path d="M24.5 12.3333H22.75V8.80952C22.75 6.47309 21.8281 4.23236 20.1872 2.58025C18.5462 0.928144 16.3206 0 14 0C11.6794 0 9.45376 0.928144 7.81282 2.58025C6.17187 4.23236 5.25 6.47309 5.25 8.80952V12.3333H3.5C2.57259 12.3361 1.68396 12.7083 1.02819 13.3685C0.372408 14.0288 0.00276977 14.9234 0 15.8571V33.4762C0.00276977 34.4099 0.372408 35.3046 1.02819 35.9648C1.68396 36.6251 2.57259 36.9972 3.5 37H24.5C25.4274 36.9972 26.316 36.6251 26.9718 35.9648C27.6276 35.3046 27.9972 34.4099 28 33.4762V15.8571C27.9972 14.9234 27.6276 14.0288 26.9718 13.3685C26.316 12.7083 25.4274 12.3361 24.5 12.3333V12.3333ZM14 28.1905C13.3078 28.1905 12.6311 27.9838 12.0555 27.5966C11.4799 27.2094 11.0313 26.6591 10.7664 26.0152C10.5015 25.3713 10.4322 24.6628 10.5673 23.9792C10.7023 23.2957 11.0356 22.6678 11.5251 22.175C12.0146 21.6821 12.6383 21.3465 13.3172 21.2106C13.9961 21.0746 14.6999 21.1444 15.3394 21.4111C15.9789 21.6778 16.5256 22.1295 16.9101 22.7089C17.2947 23.2884 17.5 23.9697 17.5 24.6667C17.4972 25.6004 17.1276 26.4951 16.4718 27.1553C15.816 27.8155 14.9274 28.1877 14 28.1905ZM19.425 12.3333H8.575V8.80952C8.575 7.36094 9.14656 5.97168 10.1639 4.94737C11.1813 3.92307 12.5612 3.34762 14 3.34762C15.4388 3.34762 16.8187 3.92307 17.8361 4.94737C18.8534 5.97168 19.425 7.36094 19.425 8.80952V12.3333Z" fill="#8D98A9"/>
</svg>
