<svg width="40" height="27" viewBox="0 0 40 27" fill="none" xmlns="http://www.w3.org/2000/svg">
<path d="M20 0C15.6827 0.00254563 11.4661 1.29159 7.89902 3.69937C4.33193 6.10716 1.57952 9.52218 0 13.5C1.57758 17.4791 4.32955 20.8952 7.89709 23.3031C11.4646 25.711 15.6822 26.999 20 26.999C24.3178 26.999 28.5354 25.711 32.1029 23.3031C35.6705 20.8952 38.4224 17.4791 40 13.5C38.4205 9.52218 35.6681 6.10716 32.101 3.69937C28.5339 1.29159 24.3173 0.00254563 20 0ZM20 22.5C18.202 22.5 16.4444 21.9722 14.9494 20.9832C13.4544 19.9943 12.2892 18.5887 11.6011 16.9442C10.913 15.2996 10.733 13.49 11.0838 11.7442C11.4345 9.99836 12.3004 8.39471 13.5718 7.13604C14.8431 5.87737 16.463 5.0202 18.2265 4.67293C19.9899 4.32567 21.8178 4.5039 23.4789 5.18508C25.1401 5.86627 26.5599 7.01983 27.5588 8.49987C28.5577 9.97991 29.0909 11.72 29.0909 13.5C29.0909 15.8869 28.1331 18.1761 26.4282 19.864C24.7234 21.5518 22.4111 22.5 20 22.5ZM20 8.1C18.9212 8.1 17.8666 8.41671 16.9696 9.01007C16.0726 9.60342 15.3735 10.4468 14.9607 11.4335C14.5478 12.4202 14.4398 13.506 14.6503 14.5535C14.8607 15.601 15.3802 16.5632 16.1431 17.3184C16.9059 18.0736 17.8778 18.5879 18.9359 18.7962C19.9939 19.0046 21.0907 18.8977 22.0874 18.489C23.0841 18.0802 23.9359 17.3881 24.5353 16.5001C25.1346 15.6121 25.4545 14.568 25.4545 13.5C25.4545 12.0678 24.8799 10.6943 23.8569 9.68162C22.834 8.66893 21.4466 8.1 20 8.1Z" fill="#8D98A9"/>
</svg>
