<svg width="15" height="19" viewBox="0 0 15 19" fill="none" xmlns="http://www.w3.org/2000/svg">
<path d="M11.7889 19H3.21742C2.6491 19 2.10422 18.7774 1.70236 18.3815C1.30049 17.9856 1.07457 17.4488 1.07457 16.8889C1.07457 16.329 1.07457 4.22222 1.07457 4.22222H13.9317V16.8889C13.9317 17.4488 13.7058 17.9856 13.3039 18.3815C12.9021 18.7774 12.3572 19 11.7889 19ZM11.5901 6.33333C11.2118 6.33333 10.9037 6.93954 10.9037 7.6837V15.7797C10.9037 16.5239 11.2118 17.1301 11.5901 17.1301C11.9683 17.1301 12.2702 16.5239 12.2702 15.7797V7.6837C12.2723 6.94165 11.9671 6.33333 11.5921 6.33333H11.5901ZM8.86335 6.33333C8.48728 6.33333 8.1822 6.93954 8.1822 7.6837V15.7797C8.1822 16.5239 8.48728 17.1301 8.86335 17.1301C9.23942 17.1301 9.5445 16.5239 9.5445 15.7797V7.6837C9.54665 6.94165 9.24149 6.33333 8.86649 6.33333H8.86335ZM6.13665 6.33333C5.76165 6.33333 5.45654 6.93954 5.45654 7.6837V15.7797C5.45654 16.5239 5.76165 17.1301 6.13665 17.1301C6.51165 17.1301 6.81885 16.5239 6.81885 15.7797V7.6837C6.82099 6.94165 6.51479 6.33333 6.13979 6.33333H6.13665ZM3.41622 6.33333C3.03801 6.33333 2.73089 6.93954 2.73089 7.6837V15.7797C2.73089 16.5239 3.03801 17.1301 3.41622 17.1301C3.79444 17.1301 4.09738 16.5239 4.09738 15.7797V7.6837C4.09952 6.94165 3.79436 6.33333 3.41936 6.33333H3.41622ZM15 3.16667H0V1.05556H3.75L4.82143 0H10.1786L11.25 1.05556H15V3.16667Z" fill="white"/>
</svg>
