<svg width="26" height="26" viewBox="0 0 26 26" fill="none" xmlns="http://www.w3.org/2000/svg">
<path d="M16.4591 11.3041H9.80908L1.83008 1.99512H24.4381L16.4591 11.3041Z" fill="#FD5E29"/>
<path opacity="0.9" d="M16.4576 21.2782L9.80859 25.2682V11.3042H16.4576V21.2782Z" fill="#FD5E29"/>
<path opacity="0.9" d="M24.771 1.995H1.5C1.23747 1.98919 0.987219 1.88265 0.801069 1.69743C0.614919 1.51221 0.507123 1.2625 0.5 1C0.505858 0.736623 0.613095 0.485659 0.799377 0.299377C0.985659 0.113095 1.23662 0.00585781 1.5 0H24.771C25.0344 0.00585781 25.2853 0.113095 25.4716 0.299377C25.6579 0.485659 25.7651 0.736623 25.771 1C25.7639 1.2625 25.6561 1.51221 25.4699 1.69743C25.2838 1.88265 25.0335 1.98919 24.771 1.995Z" fill="#FD5E29"/>
</svg>
