<svg width="154" height="99" viewBox="0 0 154 99" fill="none" xmlns="http://www.w3.org/2000/svg">
<path d="M136.676 70.844C136.843 70.5614 137.102 70.3451 137.41 70.2315C137.719 70.118 138.056 70.1142 138.367 70.2207C138.65 70.3245 138.907 70.4885 139.12 70.7014C139.333 70.9144 139.497 71.1711 139.601 71.4539C140.117 72.5436 139.798 74.0257 138.303 75.2811C137.936 75.1614 137.576 75.0218 137.224 74.8627C137.685 74.0436 137.939 73.8534 137.611 73.1927C137.398 72.7646 137.108 72.8521 136.803 72.3577C136.634 72.1466 136.531 71.8898 136.509 71.6203C136.486 71.3507 136.544 71.0804 136.676 70.844Z" fill="#1B3254"/>
<path d="M147.783 72.368C147.435 72.368 146.983 72.349 146.454 72.313C146.714 71.8558 146.883 71.3531 146.954 70.832C147.086 70.0105 146.958 69.1683 146.588 68.423C145.808 66.9517 144.539 65.7987 143 65.163C141.663 64.4821 140.184 64.1267 138.683 64.126C137.784 64.1399 136.887 64.2158 135.998 64.353C134.669 64.5787 133.366 64.9379 132.109 65.425C131.66 65.584 131.235 65.733 130.856 65.848C130.141 66.0565 129.4 66.1619 128.656 66.161C127.699 66.1846 126.751 65.9626 125.904 65.516C125.048 65.0281 124.339 64.3186 123.852 63.462C123.357 62.6032 123.099 61.6283 123.104 60.637C123.102 60.0809 123.178 59.5272 123.329 58.992C123.482 58.4625 123.709 57.9575 124.004 57.492C124.821 56.3214 125.838 55.3041 127.009 54.487C126.369 54.0837 125.783 53.6008 125.264 53.05C124.754 52.5027 124.317 51.8916 123.964 51.232C123.607 50.572 123.335 49.8698 123.153 49.142C122.972 48.3997 122.881 47.6382 122.883 46.874C122.879 45.9769 122.997 45.0833 123.234 44.218C123.469 43.3808 123.824 42.5821 124.289 41.847C124.781 41.0781 125.372 40.3771 126.046 39.762C126.801 39.0774 127.625 38.4741 128.506 37.962C129.959 37.1124 131.529 36.4822 133.166 36.092C134.988 35.6617 136.855 35.4502 138.727 35.462C139.749 35.4451 140.771 35.512 141.783 35.662C142.959 35.9051 144.109 36.2656 145.213 36.738C145.281 36.7808 145.351 36.8192 145.424 36.853C145.496 36.889 145.578 36.93 145.679 36.986C146.511 37.4085 147.288 37.9318 147.992 38.544C148.686 39.1336 149.33 39.7798 149.917 40.476C150.608 41.3015 151.149 42.2413 151.517 43.253C151.876 44.2738 152.057 45.3489 152.05 46.431C152.052 47.2231 151.952 48.0121 151.75 48.778C151.54 49.5546 151.233 50.3016 150.836 51.001C150.43 51.7195 149.94 52.3866 149.375 52.988C148.79 53.6065 148.137 54.157 147.429 54.629C146.063 55.5502 144.557 56.2448 142.97 56.686C141.246 57.1551 139.466 57.3859 137.68 57.372C136.052 57.3837 134.428 57.2259 132.833 56.901C131.426 56.6121 130.064 56.1369 128.783 55.488C127.919 56.076 127.483 56.682 127.483 57.288C127.483 58.005 127.977 58.434 128.951 58.562C130.122 58.7331 131.301 58.8332 132.484 58.862C132.766 58.8653 133.047 58.8496 133.327 58.815L133.493 58.787H141.775C141.775 58.787 141.845 58.787 141.967 58.787C143.706 58.7681 145.434 59.053 147.075 59.629C147.942 59.9639 148.758 60.4201 149.497 60.984C150.004 61.4004 150.453 61.8823 150.833 62.417C150.961 62.588 151.097 62.759 151.233 62.924C152.101 63.8775 152.685 65.0555 152.917 66.324C153.085 67.1445 153.106 67.9882 152.98 68.816C152.889 69.398 152.648 69.9461 152.28 70.406C151.751 71.0415 151.083 71.5462 150.327 71.881C149.522 72.2184 148.656 72.3842 147.783 72.368ZM138.725 39.918C138.338 39.9161 137.953 39.9607 137.577 40.051C136.972 40.2 136.664 40.373 136.61 40.594C136.531 40.917 136.987 41.318 137.617 41.873C138.273 42.4144 138.865 43.0283 139.383 43.703C139.982 44.4859 140.305 45.4452 140.302 46.431C140.283 48.556 138.835 49.862 137.783 50.816C137.162 51.378 136.671 51.822 136.736 52.222C136.778 52.482 137.047 52.712 137.58 52.945C138.01 53.1265 138.474 53.2167 138.941 53.21C140.67 53.0943 142.304 52.3748 143.557 51.177C144.259 50.5931 144.833 49.87 145.241 49.0533C145.65 48.2366 145.885 47.3441 145.931 46.432C145.931 42.764 142.059 39.92 138.731 39.919L138.725 39.918ZM131.376 42.418C131.148 42.418 130.925 42.4857 130.735 42.6124C130.545 42.7391 130.397 42.9192 130.31 43.13C130.223 43.3407 130.2 43.5726 130.244 43.7964C130.288 44.0202 130.398 44.2259 130.559 44.3873C130.72 44.5488 130.926 44.6589 131.15 44.7036C131.373 44.7484 131.605 44.7258 131.816 44.6388C132.027 44.5517 132.207 44.4041 132.335 44.2146C132.462 44.0251 132.53 43.8022 132.53 43.574C132.53 43.2682 132.408 42.975 132.192 42.7587C131.976 42.5424 131.683 42.4206 131.377 42.42L131.376 42.418Z" fill="#1B3254"/>
<path d="M55.547 0.0800781H69.011L65.148 6.05508C65.148 6.05508 64.693 10.4551 53.937 10.4551C43.181 10.4551 43.2579 6.05508 43.2579 6.05508L55.547 0.0800781Z" fill="#FFF2E4"/>
<path d="M43.471 1.505L56.131 0L43.471 6.055C43.471 6.055 43.043 10.455 32.287 10.455C21.531 10.455 21.608 6.055 21.608 6.055L43.471 1.505Z" fill="#FD5E29"/>
<path d="M69.054 0H82.519L86.773 6.055C86.773 6.055 86.344 10.455 75.588 10.455C64.832 10.455 64.909 6.055 64.909 6.055L69.054 0Z" fill="#FD5E29"/>
<path d="M109.48 1.505L95.837 0L108.363 6.055C108.363 6.055 108.355 10.469 119.111 10.469C129.867 10.469 130.222 6.06 130.222 6.06L109.48 1.505Z" fill="#FD5E29"/>
<path d="M95.984 0H82.519L86.685 6.055C86.685 6.055 86.785 10.467 97.541 10.467C108.297 10.467 108.573 6.058 108.573 6.058L95.984 0Z" fill="#FFF2E4"/>
<path d="M43.471 6.05518C43.471 6.05518 43.043 15.7372 32.287 15.7372C21.531 15.7372 21.608 6.05518 21.608 6.05518H43.471Z" fill="#E44D1C"/>
<path d="M65.122 6.05518C65.122 6.05518 64.694 15.7372 53.938 15.7372C43.182 15.7372 43.259 6.05518 43.259 6.05518H65.122Z" fill="#FFC48F"/>
<path d="M86.772 6.05518C86.772 6.05518 86.344 15.7372 75.588 15.7372C64.832 15.7372 64.909 6.05518 64.909 6.05518H86.772Z" fill="#E44D1C"/>
<path d="M108.636 6.05518C108.636 6.05518 108.208 15.7372 97.452 15.7372C86.696 15.7372 86.773 6.05518 86.773 6.05518H108.636Z" fill="#FFC48F"/>
<path d="M130.223 6.05518C130.223 6.05518 129.795 15.7372 119.039 15.7372C108.283 15.7372 108.36 6.05518 108.36 6.05518H130.223Z" fill="#E44D1C"/>
<path d="M70.117 55.1809C70.0797 55.7572 70.241 56.329 70.574 56.8009C70.7291 56.9899 70.9265 57.1399 71.1502 57.2385C71.374 57.3372 71.6178 57.3819 71.862 57.3689C72.522 57.3233 73.1814 57.4676 73.762 57.7849C74.1969 58.1943 74.4674 58.7482 74.523 59.3429V65.4929H71.153C69.011 65.4929 65.496 65.6929 63.029 63.7929C61.9899 63.0811 61.145 62.1211 60.5712 60.9999C59.9973 59.8788 59.7126 58.632 59.743 57.3729V29.2169H67.316C68.0922 29.1439 68.8716 29.3189 69.542 29.7169C69.9865 30.2706 70.1932 30.9779 70.117 31.6839V55.1809Z" fill="#FD5E29"/>
<path d="M136.189 74.6284L139.755 76.5431L140.303 77.3429L141.494 85.9795L141.416 86.6547L140.947 87.4076L140.358 87.7156L135.105 88.3341L134.351 88.3878L136.458 85.1668L136.455 82.1777L137.387 78.5743L135.558 74.7428C135.656 74.6574 135.747 74.5648 135.831 74.466C135.831 74.466 136.161 74.6048 136.189 74.6284Z" fill="#FD5E29"/>
<path d="M136.246 78.1028C136.584 78.1265 136.877 77.8715 136.901 77.5332C136.925 77.1949 136.67 76.9015 136.331 76.8778C135.993 76.8542 135.7 77.1092 135.676 77.4475C135.652 77.7857 135.907 78.0792 136.246 78.1028Z" fill="#FD5E29"/>
<g filter="url(#filter0_d_1_749)">
<path d="M135.24 88.6719L130.018 87.3429L129.282 87.1209L128.817 86.2589L128.705 85.5809L130.659 77.6529L131.091 76.5159L131.62 76.0519L135.41 74.5839C135.534 74.5385 135.655 74.484 135.771 74.4209L135.779 74.4279C135.875 74.5152 135.966 74.608 136.052 74.7059L138.744 77.8279L138.973 78.7889L136.953 87.4349L136.633 88.0479L135.912 88.5919L135.239 88.6719H135.24ZM135.005 77.0309C134.864 77.0308 134.728 77.079 134.618 77.1676C134.509 77.2561 134.433 77.3795 134.404 77.5171C134.375 77.6548 134.394 77.7983 134.457 77.9237C134.521 78.0491 134.626 78.1487 134.755 78.2059C134.833 78.2409 134.918 78.259 135.004 78.2589C135.167 78.2589 135.323 78.1942 135.438 78.0791C135.553 77.9639 135.618 77.8077 135.618 77.6449C135.618 77.4821 135.553 77.3259 135.438 77.2107C135.323 77.0956 135.167 77.0309 135.004 77.0309H135.005Z" fill="#FD5E29"/>
</g>
<path d="M8.48877 77.957C12.248 78.4905 31.7615 86.3866 58.4308 89.4666C70.0695 90.337 81.7728 89.4615 93.1524 86.8692C96.5288 86.057 99.8386 84.9891 103.053 83.675C105.415 82.6506 107.716 81.4903 109.944 80.1999C112.175 78.9599 114.877 77.3702 117.727 76.0906C123.034 73.7071 125.413 73.5103 125.745 73.4576C127.278 73.2494 128.838 73.3729 130.32 73.8197C131.801 74.2666 133.17 75.0263 134.332 76.0476C134.486 76.1858 134.651 76.3897 134.877 76.6289C134.98 76.7344 135.104 76.8741 135.277 77.0504C135.45 77.2267 135.421 77.1741 135.475 77.246C135.537 77.3183 135.58 77.4049 135.601 77.4979C135.535 77.5755 135.448 77.6317 135.35 77.6594C135.252 77.6871 135.149 77.685 135.052 77.6534C134.865 77.5835 134.692 77.4812 134.54 77.3512C134.412 77.2444 134.09 76.9901 133.879 76.854C131.782 75.4811 129.238 74.9667 126.772 75.417C124.089 76.0021 121.492 76.927 119.043 78.1693C115.093 80.1263 110.781 83.4722 106.626 85.8089C102.753 88.0493 98.6213 89.8109 94.3229 91.0552C82.611 94.5087 70.2927 95.4 58.2056 93.6685C29.3183 89.5751 9.92618 79.5344 8.48877 77.957Z" fill="#1B3254"/>
<path d="M45.1572 43.626C45.2144 42.2407 44.9996 40.8574 44.5251 39.5547C43.8041 38.0627 43.1251 36.6893 41.7021 36.4443C40.2791 36.1993 35.8102 36.9548 33.0022 38.7568C30.1942 40.5588 27.2452 43.3486 27.7852 46.8496C28.3252 50.3506 32.0781 52.267 33.1851 52.875C34.2921 53.483 35.8531 54.7547 35.9851 55.2617C36.0371 55.6377 35.197 56.7778 33.373 57.5068C31.549 58.2358 28.9732 58.0804 27.7422 58.1074C27.6049 59.7457 27.7928 61.3945 28.2952 62.96C29.1042 64.883 30.1602 65.7926 30.9592 65.9326C34.4874 65.8991 37.939 64.8989 40.9392 63.042C44.7842 60.458 45.993 58.3554 46.177 55.6484C46.361 52.9414 44.6592 51.0599 43.2322 49.7939C41.8052 48.5279 38.7421 47.0998 37.9321 45.9228C38.3781 45.1168 39.4732 44.6954 41.3052 44.1094C42.5437 43.6911 43.8538 43.5264 45.1572 43.626Z" fill="#FD5E29"/>
<path d="M99.173 66.1479C97.6559 66.1492 96.1465 65.9327 94.691 65.5049C93.2341 65.0784 91.8514 64.4309 90.591 63.5849C89.3021 62.7192 88.1679 61.6428 87.236 60.4009C86.2379 59.0635 85.4796 57.5628 84.995 55.9659C84.6124 54.7307 84.3722 53.4557 84.279 52.1659C84.1947 50.97 84.2525 49.7683 84.451 48.5859C84.8272 46.3513 85.7256 44.237 87.073 42.4149C87.7608 41.485 88.5559 40.6395 89.442 39.8959C90.3367 39.1466 91.3156 38.504 92.359 37.9809C93.4244 37.4466 94.5482 37.0379 95.708 36.7629C96.9116 36.4784 98.1442 36.3351 99.381 36.3359C99.526 36.3359 99.672 36.3359 99.817 36.3419C101.795 36.3341 103.752 36.7507 105.555 37.5635C107.359 38.3764 108.967 39.5666 110.271 41.0539C111.747 42.8975 112.824 45.028 113.434 47.31C114.043 49.5921 114.17 51.9758 113.809 54.3099H109.176H96.434H93.153C93.1768 54.3578 93.1972 54.4072 93.214 54.4579C93.5358 55.3397 94.0728 56.1271 94.7763 56.7487C95.4797 57.3702 96.3273 57.8061 97.242 58.0169C97.9623 58.2141 98.7061 58.3123 99.453 58.3089C100.384 58.2937 101.311 58.1784 102.217 57.9649L102.617 57.8769C103.136 57.7402 103.667 57.6545 104.203 57.6209C104.338 57.6189 104.472 57.635 104.603 57.6689C105.45 57.9298 106.167 58.5014 106.611 59.2689C106.721 59.4159 106.834 59.5689 106.958 59.7229C107.437 60.3289 107.99 61.0229 108.526 61.6949L109.155 62.4849C107.782 63.6904 106.192 64.624 104.471 65.2359C102.771 65.8432 100.978 66.1517 99.173 66.1479ZM99.535 43.2709C98.4793 43.22 97.4272 43.4291 96.4712 43.8798C95.5151 44.3305 94.6844 45.0091 94.052 45.8559C93.4849 46.626 93.0816 47.504 92.867 48.4359H105.859C105.707 47.5136 105.36 46.6341 104.842 45.8559C104.256 45.0039 103.459 44.3182 102.529 43.8654C101.599 43.4126 100.567 43.2082 99.535 43.2719V43.2709Z" fill="#FD5E29"/>
<path d="M0.446976 62.3591C0.0556146 60.325 -0.07877 58.2497 0.0469764 56.1821C0.281976 52.4001 0.630976 47.2501 0.509976 46.6951C0.229019 45.7258 0.344105 44.6846 0.829976 43.8001C1.59898 42.4371 2.90998 41.4241 5.77998 40.9391C8.64998 40.4541 10.73 40.9121 11.219 42.2331C11.708 43.5541 10.767 46.0331 10.105 49.4941C9.56843 52.7149 9.7494 56.0143 10.635 59.1571C11.266 60.7001 12.296 61.6571 12.354 62.4681C12.388 62.9391 11.881 63.7681 10.635 64.7301C9.06055 65.9171 7.15769 66.5884 5.18698 66.6521C5.06498 66.6588 4.94564 66.6621 4.82898 66.6621C2.10998 66.6691 0.988976 64.8411 0.446976 62.3591ZM5.44698 35.0781C5.1519 34.621 4.96073 34.1046 4.88695 33.5655C4.81317 33.0264 4.85858 32.4777 5.01998 31.9581C5.55981 31.0566 6.28977 30.2836 7.15898 29.6931C8.51511 29.0717 9.97269 28.7014 11.461 28.6001C12.4023 28.5981 13.3161 28.9178 14.051 29.5061C14.4221 30.071 14.6046 30.739 14.572 31.4141C14.5606 31.7493 14.4829 32.079 14.3434 32.384C14.2038 32.689 14.0052 32.9633 13.759 33.1911C13.0159 33.9563 12.2079 34.6555 11.344 35.2811C10.4356 35.7304 9.44652 35.9932 8.43498 36.0541H8.33498C7.29762 36.0231 6.2931 35.6833 5.44998 35.0781H5.44698Z" fill="#1B3254"/>
<defs>
<filter id="filter0_d_1_749" x="128.705" y="71.4209" width="18.268" height="22.251" filterUnits="userSpaceOnUse" color-interpolation-filters="sRGB">
<feFlood flood-opacity="0" result="BackgroundImageFix"/>
<feColorMatrix in="SourceAlpha" type="matrix" values="0 0 0 0 0 0 0 0 0 0 0 0 0 0 0 0 0 0 127 0" result="hardAlpha"/>
<feOffset dx="4" dy="1"/>
<feGaussianBlur stdDeviation="2"/>
<feColorMatrix type="matrix" values="0 0 0 0 0 0 0 0 0 0 0 0 0 0 0 0 0 0 0.349 0"/>
<feBlend mode="normal" in2="BackgroundImageFix" result="effect1_dropShadow_1_749"/>
<feBlend mode="normal" in="SourceGraphic" in2="effect1_dropShadow_1_749" result="shape"/>
</filter>
</defs>
</svg>
