<svg width="21" height="20" viewBox="0 0 21 20" fill="none" xmlns="http://www.w3.org/2000/svg">
<path d="M7.98505 16.138C7.60309 16.1378 7.22966 16.2509 6.91197 16.4629C6.59429 16.675 6.34663 16.9765 6.20033 17.3293C6.05402 17.6822 6.01564 18.0705 6.09003 18.4451C6.16443 18.8197 6.34826 19.1639 6.61827 19.4341C6.88829 19.7042 7.23236 19.8882 7.60696 19.9628C7.98157 20.0374 8.36988 19.9992 8.72278 19.8531C9.07568 19.707 9.37732 19.4595 9.58955 19.1419C9.80177 18.8243 9.91505 18.451 9.91505 18.069C9.91531 17.8154 9.86558 17.5643 9.76869 17.33C9.67181 17.0956 9.52967 16.8827 9.35041 16.7033C9.17116 16.524 8.9583 16.3817 8.72402 16.2847C8.48973 16.1877 8.23862 16.1379 7.98505 16.138ZM0.102051 0V1.419H3.28805L5.82705 12.469C5.82705 12.469 6.02705 13.278 6.12705 13.497C6.22664 13.7895 6.40298 14.05 6.63765 14.251C6.87232 14.4521 7.1567 14.5864 7.46105 14.64C8.01405 14.627 16.2751 14.64 16.2751 14.64C16.6203 14.6414 16.9596 14.5498 17.2572 14.3747C17.5547 14.1996 17.7996 13.9475 17.9661 13.645L20.0711 6.168C20.148 6.0259 20.1875 5.86658 20.1861 5.705C20.1855 5.44914 20.0837 5.20389 19.9029 5.02287C19.7221 4.84185 19.4769 4.73979 19.2211 4.739H4.70205L7.46605 13.278H16.2801V12.585H7.91505L4.70205 0H0.102051ZM16.0381 16.138C15.6561 16.1378 15.2827 16.2509 14.965 16.4629C14.6473 16.675 14.3996 16.9765 14.2533 17.3293C14.107 17.6822 14.0686 18.0705 14.143 18.4451C14.2174 18.8197 14.4013 19.1639 14.6713 19.4341C14.9413 19.7042 15.2854 19.8882 15.66 19.9628C16.0346 20.0374 16.4229 19.9992 16.7758 19.8531C17.1287 19.707 17.4303 19.4595 17.6425 19.1419C17.8548 18.8243 17.9681 18.451 17.9681 18.069C17.9683 17.8154 17.9186 17.5643 17.8217 17.33C17.7248 17.0956 17.5827 16.8827 17.4034 16.7033C17.2242 16.524 17.0113 16.3817 16.777 16.2847C16.5427 16.1877 16.2916 16.1379 16.0381 16.138Z" fill="#8D98A9"/>
</svg>
