<svg width="20" height="21" viewBox="0 0 20 21" fill="none" xmlns="http://www.w3.org/2000/svg">
<path d="M6.85202 19.773V16.715C6.85361 16.3388 7.00449 15.9786 7.27152 15.7137C7.53854 15.4487 7.89985 15.3006 8.27602 15.302H11.15C11.5272 15.3017 11.8891 15.4505 12.157 15.716C12.2891 15.8468 12.394 16.0026 12.4656 16.1742C12.5371 16.3459 12.574 16.53 12.574 16.716V19.774C12.5729 19.9349 12.6038 20.0944 12.6649 20.2432C12.726 20.3921 12.8161 20.5273 12.93 20.641C13.0444 20.7552 13.1803 20.8458 13.3297 20.9076C13.4791 20.9694 13.6393 21.0011 13.801 21.001H15.762C16.6765 21.0036 17.5548 20.644 18.205 20.001C18.5256 19.6841 18.7803 19.3068 18.9541 18.8909C19.128 18.475 19.2177 18.0287 19.218 17.578V8.86596C19.2168 8.50259 19.1355 8.14395 18.98 7.81556C18.8244 7.48717 18.5984 7.19709 18.318 6.96596L11.652 1.67496C11.088 1.22504 10.3846 0.985953 9.66323 0.998914C8.94183 1.01187 8.24755 1.27607 7.70002 1.74596L1.18502 6.96396C0.892384 7.18854 0.653673 7.47571 0.486359 7.80445C0.319044 8.1332 0.22736 8.4952 0.218018 8.86396V17.564C0.221459 18.4772 0.587475 19.3517 1.23557 19.9951C1.88367 20.6385 2.76078 20.9981 3.67402 20.995H5.59002C5.91512 20.9963 6.22756 20.869 6.45913 20.6408C6.69069 20.4126 6.82259 20.1021 6.82602 19.777L6.85202 19.773Z" fill="#8D98A9"/>
</svg>
