<svg width="22" height="20" viewBox="0 0 22 20" fill="none" xmlns="http://www.w3.org/2000/svg">
<path d="M11.1009 20.0001L9.52095 18.5611C3.90795 13.4711 0.201946 10.1141 0.201946 5.99405C0.194196 5.20475 0.343943 4.42184 0.642425 3.69111C0.940907 2.96038 1.38213 2.29653 1.94027 1.73838C2.49842 1.18024 3.16228 0.739012 3.893 0.44053C4.62373 0.142048 5.40665 -0.00769852 6.19595 5.20535e-05C7.12799 0.00787245 8.04755 0.215225 8.89276 0.60816C9.73796 1.00109 10.4892 1.57049 11.0959 2.27805C11.7027 1.57049 12.4539 1.00109 13.2991 0.60816C14.1443 0.215225 15.0639 0.00787245 15.9959 5.20535e-05C16.7854 -0.00783452 17.5685 0.141845 18.2994 0.440329C19.0303 0.738814 19.6944 1.1801 20.2526 1.73837C20.8109 2.29664 21.2522 2.96066 21.5507 3.69157C21.8492 4.42248 21.9988 5.20559 21.9909 5.99505C21.9909 10.1151 18.2849 13.4721 12.6719 18.5731L11.1009 20.0001Z" fill="#8D98A9"/>
</svg>
