<svg width="21" height="20" viewBox="0 0 21 20" fill="none" xmlns="http://www.w3.org/2000/svg">
<path d="M0.0939941 20.001V17.501C0.0939941 14.174 6.75399 12.501 10.094 12.501C13.434 12.501 20.094 14.175 20.094 17.501V20.001H0.0939941ZM5.09399 5.00095C5.09399 4.01204 5.38638 3.04537 5.93579 2.22312C6.4852 1.40087 7.2663 0.759761 8.17993 0.381322C9.09356 0.00288424 10.0987 -0.0957834 11.0686 0.0971427C12.0385 0.290069 12.9299 0.766044 13.6292 1.46531C14.3284 2.16457 14.8054 3.05546 14.9983 4.02537C15.1912 4.99527 15.0916 6.0009 14.7131 6.91453C14.3347 7.82816 13.6936 8.60877 12.8713 9.15818C12.0491 9.70759 11.0829 10.001 10.094 10.001C8.76791 10.001 7.49652 9.47428 6.55884 8.5366C5.62116 7.59891 5.09399 6.32703 5.09399 5.00095Z" fill="#8D98A9"/>
</svg>
